HIERARCHY
ROOT root
{
	OFFSET 0.000000 0.000000 0.000000
	CHANNELS 6 Xposition Yposition Zposition Zrotation Yrotation Xrotation
	JOINT lhip
	{
		OFFSET 0.058581 -0.082280 -0.017664
		CHANNELS 3 Zrotation Yrotation Xrotation
		JOINT lknee
		{
			OFFSET 0.043451 -0.386469 0.008037
			CHANNELS 3 Zrotation Yrotation Xrotation
			JOINT lankle
			{
				OFFSET -0.014790 -0.426874 -0.037428
				CHANNELS 3 Zrotation Yrotation Xrotation
				JOINT ltoe
				{
					OFFSET 0.041054 -0.060286 0.122042
					CHANNELS 3 Zrotation Yrotation Xrotation
					End Site
					{
						OFFSET 0.000000 0.000000 0.000000
					}
				}
			}
		}
	}
	JOINT rhip
	{
		OFFSET -0.060310 -0.090513 -0.013543
		CHANNELS 3 Zrotation Yrotation Xrotation
		JOINT rknee
		{
			OFFSET -0.043257 -0.383688 -0.004843
			CHANNELS 3 Zrotation Yrotation Xrotation
			JOINT rankle
			{
				OFFSET 0.019056 -0.420046 -0.034562
				CHANNELS 3 Zrotation Yrotation Xrotation
				JOINT rtoe
				{
					OFFSET -0.034840 -0.062106 0.130323
					CHANNELS 3 Zrotation Yrotation Xrotation
					End Site
					{
						OFFSET 0.000000 0.000000 0.000000
					}
				}
			}
		}
	}
	JOINT lowerback
	{
		OFFSET 0.004439 0.124404 -0.038385
		CHANNELS 3 Zrotation Yrotation Xrotation
		JOINT upperback
		{
			OFFSET 0.004488 0.137956 0.026820
			CHANNELS 3 Zrotation Yrotation Xrotation
			JOINT chest
			{
				OFFSET -0.002265 0.056032 0.002855
				CHANNELS 3 Zrotation Yrotation Xrotation
				JOINT lowerneck
				{
					OFFSET -0.013390 0.211636 -0.033468
					CHANNELS 3 Zrotation Yrotation Xrotation
					JOINT upperneck
					{
						OFFSET 0.010113 0.088937 0.050410
						CHANNELS 3 Zrotation Yrotation Xrotation
						End Site
						{
							OFFSET 0.000000 0.000000 0.000000
						}
					}
				}
				JOINT lclavicle
				{
					OFFSET 0.071702 0.114000 -0.018898
					CHANNELS 3 Zrotation Yrotation Xrotation
					JOINT lshoulder
					{
						OFFSET 0.122921 0.045205 -0.019046
						CHANNELS 3 Zrotation Yrotation Xrotation
						JOINT lelbow
						{
							OFFSET 0.255332 -0.015649 -0.022946
							CHANNELS 3 Zrotation Yrotation Xrotation
							JOINT lwrist
							{
								OFFSET 0.265709 0.012698 -0.007375
								CHANNELS 3 Zrotation Yrotation Xrotation
								End Site
								{
									OFFSET 0.000000 0.000000 0.000000
								}
							}
						}
					}
				}
				JOINT rclavicle
				{
					OFFSET -0.082954 0.112472 -0.023707
					CHANNELS 3 Zrotation Yrotation Xrotation
					JOINT rshoulder
					{
						OFFSET -0.113228 0.046853 -0.008472
						CHANNELS 3 Zrotation Yrotation Xrotation
						JOINT relbow
						{
							OFFSET -0.260127 -0.014369 -0.031269
							CHANNELS 3 Zrotation Yrotation Xrotation
							JOINT rwrist
							{
								OFFSET -0.269108 0.006794 -0.006027
								CHANNELS 3 Zrotation Yrotation Xrotation
								End Site
								{
									OFFSET 0.000000 0.000000 0.000000
								}
							}
						}
					}
				}
			}
		}
	}
}
MOTION
Frames: 7
Frame Time: 0.033333
0.607698 0.123393 0.986305 88.486456 -2.698708 92.333526 8.120704 3.156868 0.334843 -3.387955 -6.489871 4.037162 0.393527 8.732568 -10.946080 0.000000 -0.000000 0.000000 -1.456075 -4.220980 -8.399150 1.821735 -5.513851 18.400739 -0.246460 -11.124922 -14.518032 0.000000 -0.000000 0.000000 1.547773 -4.502322 8.675077 0.662314 -5.059854 0.694267 -2.314925 -3.813280 3.605403 -0.355392 0.289798 0.178458 -1.293094 -4.047138 6.483451 -25.566137 9.602403 3.769236 -54.805005 -8.332756 9.120556 1.993270 -43.520878 15.076597 -2.500620 -2.627608 -6.070530 25.310082 -9.183831 -1.326299 57.780849 -7.569369 8.629630 -11.808963 13.492517 -1.154787 8.751645 -0.400101 -3.816750 
0.607982 0.123321 0.986098 87.441978 -2.565934 92.481541 8.241262 3.471276 0.689284 -3.365862 -6.380639 3.642527 0.411851 9.084978 -10.865975 0.000000 -0.000000 0.000000 -1.372096 -4.228319 -8.617451 1.901345 -5.224431 18.484758 -0.147636 -10.619871 -14.491238 0.000000 -0.000000 0.000000 1.541664 -4.541762 8.570175 0.706123 -5.053210 0.898439 -2.281327 -3.793872 3.802523 -0.301436 0.258165 0.344617 -1.187804 -4.262248 6.710840 -25.685538 9.626152 3.419691 -54.748991 -8.226934 9.107659 1.837726 -43.090047 15.113687 -2.404583 -2.558558 -5.554616 25.099907 -9.462900 -1.290293 57.326329 -7.752191 8.670465 -11.646007 13.894297 -0.646761 8.695632 -0.284536 -3.491867 
0.606842 0.124045 0.986189 86.575930 -2.504092 92.785609 8.215258 3.505409 0.504999 -3.362082 -6.121526 3.734790 0.498250 9.486322 -10.805671 0.000000 -0.000000 0.000000 -1.373861 -3.909699 -9.106927 2.011070 -4.811848 18.558095 -0.111958 -10.479685 -14.323789 0.000000 -0.000000 0.000000 1.592134 -4.668702 8.553816 0.673731 -5.033522 0.899938 -2.344386 -3.774240 3.851249 -0.472033 0.392472 0.448011 -1.141374 -4.118694 6.864101 -25.840440 9.642098 3.361560 -54.547264 -8.331979 8.996528 1.963633 -42.728218 14.729992 -2.336143 -2.427102 -5.312960 25.080748 -9.500658 -1.284424 57.005725 -7.849320 8.879048 -11.519090 14.214017 -0.365072 8.832487 -0.544380 -3.304800 
0.606036 0.124726 0.985916 85.853890 -2.451691 92.886386 8.259742 3.743430 0.569365 -3.414291 -5.907450 3.571841 0.648964 9.667870 -10.691052 0.000000 -0.000000 0.000000 -1.342435 -3.745995 -9.411594 2.005483 -4.531353 18.765739 -0.135501 -10.346445 -14.335326 0.000000 -0.000000 0.000000 1.451755 -4.759863 8.534787 0.749202 -5.084946 1.119677 -2.285224 -3.826134 3.804636 -0.706264 0.603052 0.732234 -1.433394 -4.074999 7.456358 -25.733143 9.489475 3.360897 -54.662757 -8.421573 8.912340 2.294402 -42.179989 14.520203 -2.365759 -2.394331 -5.265206 24.924118 -9.313047 -1.209256 56.841254 -7.511891 9.025431 -11.197092 14.015519 -0.133898 8.872990 -0.420092 -3.325815 
0.605063 0.125718 0.986087 85.404315 -2.347885 92.915879 8.312242 3.809376 0.585752 -3.381760 -5.707828 3.519735 0.585531 9.751345 -10.752904 0.000000 -0.000000 0.000000 -1.324488 -3.579329 -9.358955 1.977691 -4.741921 18.437662 -0.169464 -10.017021 -14.078710 0.000000 -0.000000 0.000000 1.559698 -4.875175 8.695456 0.816119 -5.108642 0.982895 -2.298586 -3.836342 3.734726 -1.141955 0.645181 1.491806 -1.898265 -4.220598 8.261275 -25.775654 9.361076 3.573272 -54.646412 -8.569386 8.880839 2.610107 -41.921256 14.281736 -2.407049 -2.527063 -5.369942 24.947700 -9.001333 -0.885849 56.872171 -7.037643 9.132857 -11.166195 13.652158 -0.064889 8.608741 -0.117453 -3.305441 
0.603544 0.126986 0.986048 84.914953 -2.346434 93.034486 8.203906 3.784960 0.467325 -3.348311 -5.618031 3.618888 0.835951 9.747010 -10.527606 0.000000 -0.000000 0.000000 -1.372619 -3.393729 -9.846800 1.945452 -4.408316 18.849063 -0.108174 -10.056871 -14.007738 0.000000 -0.000000 0.000000 1.556015 -4.882246 8.640660 0.923765 -5.073973 0.945648 -2.350071 -3.897611 3.667696 -1.579312 0.727652 2.299467 -2.593491 -4.460741 9.368221 -25.666455 9.273083 3.812922 -54.674211 -8.882588 8.977365 2.872571 -41.732585 13.952025 -2.399695 -2.430837 -5.406770 25.126988 -8.518306 -0.502645 57.014623 -6.415233 9.429599 -11.432031 13.636754 -0.531299 8.489663 -0.060069 -3.431465 
0.603672 0.128293 0.985694 84.547375 -2.306650 92.787710 8.171143 3.835531 0.950392 -3.310991 -5.539969 3.330264 0.868744 9.757949 -10.622486 0.000000 -0.000000 0.000000 -1.446925 -3.441398 -9.624918 1.934351 -4.226966 18.886207 0.011158 -9.827687 -13.910598 0.000000 -0.000000 0.000000 1.579623 -4.757093 8.210924 1.049853 -5.044562 1.467957 -2.407406 -3.890936 3.812475 -2.064426 0.628949 3.378066 -3.318331 -4.851666 10.464620 -25.487146 8.863393 4.241617 -54.712145 -9.274907 9.149089 3.117881 -41.785092 13.721696 -2.474679 -2.412177 -5.790514 25.322263 -7.922966 -0.305694 57.085333 -5.596796 9.521113 -11.491450 13.392201 -0.869545 8.342400 -0.022854 -3.803561 
